<svg width="197" height="46" viewBox="0 0 197 46" fill="none" xmlns="http://www.w3.org/2000/svg">
  <path d="M0 22.9874C0 10.2907 10.0178 0 22.391 0C34.7641 0 44.7718 10.2907 44.7718 22.9874C44.7718 35.684 34.754 45.9748 22.391 45.9748C10.0279 45.9748 0 35.684 0 22.9874ZM20.9757 36.1288L21.2284 38.3123L23.8466 38.0292C24.5362 37.9406 25.1643 37.5873 25.5982 37.044C26.032 36.5007 26.2377 35.81 26.1716 35.1179C34.0464 33.4904 34.936 26.202 32.2369 22.8863C29.5379 19.5706 24.9889 19.975 21.0465 19.3482C18.0139 18.863 18.3474 15.4462 23.2906 16.073C25.0475 16.3535 26.7517 16.8989 28.345 17.6904C28.8808 16.8817 30.9733 13.4144 31.3777 12.7067C29.0949 11.169 26.4166 10.323 23.6647 10.2705H23.0885C22.7976 10.2786 22.5074 10.3023 22.2191 10.3413L23.5333 9.7853C23.5333 9.36073 23.4221 8.65312 23.321 7.65235L20.5006 7.9455C19.8597 8.0192 19.2738 8.34312 18.8705 8.84674C18.4672 9.35035 18.2792 9.99288 18.3474 10.6344C17.0427 10.9787 15.8102 11.5539 14.7083 12.3327C10.9276 15.0217 10.2705 19.4089 12.363 22.4415C15.4664 26.9399 23.4827 25.4741 26.0807 26.8186C26.3247 26.9681 26.5051 27.2024 26.5871 27.4766C26.6692 27.7508 26.6472 28.0456 26.5255 28.3046C25.9998 30.3264 17.933 29.8816 15.4563 28.0418C15.241 27.9047 15.0381 27.7491 14.8498 27.5768C13.8389 29.4974 12.7169 31.3979 11.8172 33.0861C14.5417 34.6969 17.6301 35.5907 20.7938 35.684H21.4205C21.708 35.6759 21.9948 35.6523 22.2798 35.6132L20.9757 36.1288ZM82.5079 36.5736L83.1346 34.0464C83.2673 33.4654 83.6247 32.9605 84.1286 32.6422C84.6325 32.324 85.2419 32.2182 85.8236 32.3481H85.9752C87.2122 32.7839 88.5064 33.0359 89.8166 33.0962C92.5762 33.0962 94.4565 31.8427 94.6385 29.9321C94.0561 30.5717 93.3407 31.076 92.5426 31.4096C91.7445 31.7431 90.883 31.8979 90.0187 31.8629C85.6517 31.8629 82.0732 28.3349 82.0732 23.048C82.0133 21.9441 82.1736 20.8392 82.545 19.7979C82.9165 18.7566 83.4914 17.7996 84.2365 16.9828C84.9718 16.1814 85.8653 15.5413 86.8605 15.1028C87.8558 14.6644 88.9312 14.4371 90.0187 14.4353C90.9236 14.3955 91.8255 14.5645 92.6546 14.9291C93.4838 15.2937 94.2179 15.8442 94.8002 16.538C94.8259 16.0685 95.0293 15.6265 95.3691 15.3017C95.709 14.9768 96.1598 14.7936 96.6299 14.7892H100.36V29.6288C100.36 35.0168 96.2356 38.6257 89.9682 38.6257H89.4425C86.9839 38.6379 84.5747 37.9356 82.5079 36.6039V36.5736ZM91.0397 19.9952C90.4069 20.0305 89.7978 20.2481 89.2858 20.6218C88.7739 20.9955 88.381 21.5093 88.1545 22.1012C87.9279 22.6932 87.8775 23.338 88.0092 23.958C88.1409 24.578 88.4491 25.1467 88.8967 25.5954C89.2099 25.9037 89.5864 26.1402 90 26.2886C90.4137 26.4369 90.8547 26.4936 91.2924 26.4547C92.1219 26.3902 92.8946 26.0085 93.45 25.3891C94.0054 24.7696 94.3008 23.96 94.2748 23.1284C94.2488 22.2968 93.9033 21.5073 93.3103 20.9238C92.7172 20.3403 91.9221 20.0077 91.0903 19.9952H91.0397ZM188.589 32.2268C183.343 32.2268 179.724 28.8303 179.724 23.6849C179.724 18.2969 183.151 14.587 188.286 14.587C193.421 14.587 196.879 18.0037 196.879 23.1289L197 23.0177V24.0286C197 24.2354 196.959 24.4402 196.879 24.6311C196.799 24.8219 196.682 24.9951 196.535 25.1405C196.39 25.2851 196.216 25.3976 196.024 25.4708C195.833 25.5439 195.628 25.5761 195.423 25.5651H185.901C186.09 26.0903 186.455 26.5339 186.934 26.8212C187.413 27.1085 187.976 27.2218 188.529 27.1421C189.347 27.146 190.151 26.937 190.864 26.5356C191.081 26.4114 191.327 26.3461 191.577 26.3461C191.827 26.3461 192.072 26.4114 192.289 26.5356L195.898 28.5573C195.1 29.692 194.04 30.6178 192.808 31.2565C191.577 31.8952 190.209 32.228 188.822 32.2268H188.559H188.589ZM186.002 21.3599H191.056C190.919 20.792 190.58 20.2937 190.101 19.9586C189.623 19.6235 189.038 19.4747 188.458 19.5403H188.286C187.755 19.5368 187.238 19.7155 186.823 20.0466C186.407 20.3777 186.117 20.8411 186.002 21.3599ZM107.78 32.1864C104.252 32.1864 101.856 29.9624 101.856 26.6366C101.856 23.3109 104.737 21.0364 109.084 21.0364C110.005 21.0465 110.925 21.1276 111.833 21.279C111.621 20.1771 110.519 19.611 108.619 19.611C107.837 19.6357 107.063 19.7788 106.324 20.0356C106.013 20.1321 105.679 20.1229 105.373 20.0095C105.068 19.8962 104.809 19.685 104.636 19.4089L102.867 16.6188C105.009 15.1562 107.576 14.4452 110.166 14.5971C114.593 14.5971 117.596 17.2961 117.596 21.2487V31.873H113.491C113.099 31.8704 112.723 31.7148 112.443 31.4391C112.164 31.1634 112.003 30.7896 111.995 30.3971V30.3264C111.489 30.9237 110.858 31.404 110.148 31.7338C109.438 32.0637 108.664 32.2354 107.881 32.2369L107.78 32.1864ZM107.78 26.4041C107.78 27.1118 108.295 27.6071 109.508 27.6071C109.811 27.6324 110.116 27.5942 110.403 27.495C110.69 27.3958 110.954 27.2377 111.176 27.0309C111.405 26.8219 111.59 26.5694 111.72 26.2883C111.85 26.0071 111.923 25.7029 111.935 25.3933C111.267 25.2753 110.591 25.2111 109.913 25.2012C108.568 25.2113 107.78 25.7066 107.78 26.4041ZM50.7259 23.3715C50.7259 18.0846 54.3853 14.5668 59.9148 14.5668C65.4443 14.5668 69.0127 18.1048 69.0127 23.3715C69.0127 28.6382 65.3331 32.1864 59.9148 32.1864C54.4965 32.1864 50.7259 28.6685 50.7259 23.3816V23.3715ZM59.7126 20.0963C58.8697 20.1279 58.0728 20.4885 57.4927 21.1007C56.9125 21.713 56.5954 22.5282 56.6092 23.3715C56.5864 23.8178 56.6584 24.2638 56.8205 24.6802C56.9825 25.0966 57.2309 25.474 57.5493 25.7875C57.8634 26.094 58.2403 26.3286 58.6539 26.4752C59.0676 26.6218 59.5081 26.6769 59.9451 26.6366C60.7828 26.5748 61.5648 26.1935 62.1293 25.5714C62.6939 24.9494 62.9978 24.1342 62.9784 23.2944C62.9589 22.4546 62.6175 21.6544 62.0247 21.0591C61.432 20.4639 60.6332 20.1192 59.7935 20.0963H59.7126ZM70.8323 31.8629V14.8094H76.3415L76.4224 16.8311C77.1596 16.0841 78.0425 15.4966 79.0164 15.1054C79.9903 14.7141 81.0342 14.5273 82.0833 14.5566L81.8104 18.8529C81.7764 19.3123 81.6049 19.7508 81.3182 20.1114C81.0315 20.4719 80.643 20.7379 80.2031 20.8746C77.7433 21.6227 76.5168 22.519 76.5235 23.5636V31.8225L70.8323 31.8629ZM147.093 28.3046C147.091 27.9317 147.228 27.5715 147.477 27.2937L153.714 20.2176H149.398C149.099 20.2136 148.804 20.1509 148.53 20.0329C148.255 19.9149 148.007 19.744 147.798 19.53C147.59 19.316 147.426 19.063 147.315 18.7855C147.204 18.508 147.15 18.2115 147.154 17.9128V14.9307H162.013V18.4182C162.007 18.7914 161.867 19.1498 161.619 19.4291L155.301 26.5052H162.266V29.457C162.263 30.0684 162.024 30.6549 161.599 31.0946C161.391 31.3065 161.142 31.4746 160.868 31.5892C160.593 31.7037 160.299 31.7624 160.002 31.7618H147.083L147.093 28.3046ZM139.623 14.961H145.223V31.7921H139.623V14.961ZM135.084 31.8225H131.546V23.0581C131.546 22.3075 131.247 21.5875 130.717 21.0567C130.186 20.5259 129.466 20.2277 128.715 20.2277C127.964 20.2277 127.245 20.5259 126.714 21.0567C126.183 21.5875 125.885 22.3075 125.885 23.0581V31.7921H120.143V14.8094H125.703L125.784 16.5279C126.446 15.8669 127.235 15.3469 128.104 14.9995C128.973 14.652 129.903 14.4841 130.838 14.5061H130.899C134.831 14.5061 137.459 17.5387 137.459 22.0877V29.4469C137.455 30.0679 137.208 30.6627 136.772 31.1047C136.568 31.3099 136.325 31.4727 136.058 31.5837C135.791 31.6948 135.504 31.7518 135.215 31.7517L135.084 31.8225ZM164.217 31.8225C164.117 31.8225 164.018 31.8025 163.926 31.7636C163.834 31.7248 163.751 31.6679 163.681 31.5963C163.611 31.5246 163.557 31.4398 163.52 31.3467C163.484 31.2536 163.466 31.1541 163.469 31.0542L163.419 31.0036V28.3046C163.425 27.9314 163.565 27.573 163.813 27.2937L170.131 20.2176H165.784C165.183 20.2096 164.609 19.9636 164.188 19.5336C163.768 19.1035 163.535 18.5244 163.54 17.9229V14.9408H177.692C177.792 14.9394 177.89 14.9581 177.982 14.9958C178.075 15.0336 178.158 15.0895 178.228 15.1604C178.298 15.2312 178.353 15.3154 178.389 15.408C178.426 15.5005 178.443 15.5995 178.44 15.6989V18.398C178.438 18.772 178.298 19.1321 178.046 19.4089L171.819 26.485H178.784V29.4368C178.788 29.7355 178.733 30.032 178.622 30.3095C178.512 30.587 178.348 30.84 178.139 31.054C177.931 31.268 177.682 31.4389 177.408 31.5569C177.133 31.6749 176.839 31.7376 176.54 31.7416L164.217 31.8225ZM142.17 14.2534H142.251C141.799 14.28 141.347 14.211 140.923 14.0507C140.5 13.8905 140.115 13.6426 139.794 13.3234C139.466 13.0016 139.206 12.6157 139.032 12.1898C138.859 11.7638 138.774 11.3067 138.784 10.8467C138.797 9.98075 139.144 9.15336 139.752 8.53659C140.36 7.91982 141.182 7.56112 142.048 7.53509C142.914 7.50905 143.756 7.81768 144.4 8.3968C145.044 8.97592 145.44 9.78096 145.506 10.6446V10.8467C145.517 11.7393 145.176 12.6004 144.556 13.2425C144.263 13.5572 143.91 13.8092 143.517 13.983C143.125 14.1568 142.701 14.2488 142.271 14.2534H142.17Z" fill="#0A522D"/>
</svg>
